<svg width="32" height="32" viewBox="0 0 32 32" fill="none" xmlns="http://www.w3.org/2000/svg">
<path d="M16.0051 10.1588C10.367 10.1384 5.73975 14.6083 5.53149 20.2007L13.1607 20.2311V20.1042C13.1658 18.56 14.4305 17.3054 15.9747 17.3105C16.2896 17.3105 16.5944 17.3664 16.8737 17.468C16.889 17.4527 16.894 17.4273 16.9093 17.4121L22.1512 12.2108C20.4293 10.9359 18.3061 10.1638 16.0001 10.1588H16.0051Z" fill="#373A36"/>
<path d="M16.0103 8.63486C9.41216 8.60946 4.02803 13.953 3.99756 20.551V20.9574C3.99756 21.379 4.3328 21.7193 4.75438 21.7244L13.9125 21.7599C14.3341 21.7599 14.6744 21.4196 14.6795 21.0031V20.1142C14.6845 19.4082 15.2636 18.8393 15.9696 18.8393C16.6757 18.8393 17.2445 19.4183 17.2445 20.1244V21.0133C17.2395 21.4349 17.5798 21.7752 18.0014 21.7803L27.1595 21.8158C27.5811 21.8158 27.9214 21.4755 27.9264 21.059V20.6526C27.9569 14.0545 22.6084 8.67041 16.0153 8.63994L16.0103 8.63486ZM13.1607 20.1041V20.231L5.53153 20.2006C5.73978 14.6082 10.3671 10.1333 16.0052 10.1587C18.3112 10.1688 20.4344 10.9358 22.1563 12.2107L16.9144 17.412C16.9144 17.412 16.8941 17.4476 16.8788 17.4679C16.5944 17.3714 16.2947 17.3155 15.9798 17.3104C14.4357 17.3053 13.1709 18.5549 13.1658 20.1041H13.1607ZM18.7684 20.2564V20.1295C18.7684 19.4539 18.5347 18.8342 18.1385 18.3466L23.3195 13.2063C25.1531 15.0298 26.3163 17.5237 26.3976 20.2869L18.7684 20.2564Z" fill="#373A36"/>
</svg>
