<svg width="32" height="32" viewBox="0 0 32 32" fill="none" xmlns="http://www.w3.org/2000/svg">
<path d="M26.4127 5.58728H5.58728V26.4127H26.4127V5.58728ZM11.9365 9.19871L13.0184 8.1168L16.2692 11.3676L15.1873 12.4495L13.7295 10.9917V14.7149H12.2057V11.0933L10.8495 12.4495L9.7676 11.3676L11.9365 9.19871ZM20.1295 22.8165L19.0527 23.8933L17.9759 22.8165L15.8222 20.6628L16.899 19.586L18.2908 20.9778V17.2901H19.8146V20.9778L21.2063 19.586L22.2832 20.6628L20.1295 22.8165ZM22.6082 16.7619H9.39172C8.97014 16.7619 8.62982 16.4216 8.62982 16C8.62982 15.5784 8.97014 15.2381 9.39172 15.2381H22.6082C23.0298 15.2381 23.3701 15.5784 23.3701 16C23.3701 16.4216 23.0298 16.7619 22.6082 16.7619Z" fill="white"/>
<path d="M9.39179 16.7618H22.6083C23.0299 16.7618 23.3702 16.4215 23.3702 15.9999C23.3702 15.5784 23.0299 15.238 22.6083 15.238H9.39179C8.9702 15.238 8.62988 15.5784 8.62988 15.9999C8.62988 16.4215 8.9702 16.7618 9.39179 16.7618Z" fill="black"/>
<path d="M12.2108 11.0933V14.72H13.7346V10.9968L15.1924 12.4546L16.2743 11.3676L13.0235 8.11682L11.9365 9.19873L9.77271 11.3676L10.8546 12.4546L12.2108 11.0933Z" fill="black"/>
<path d="M19.8197 20.9778V17.2902H18.2959V20.9778L16.9042 19.586L15.8223 20.6629L17.981 22.8165L19.0578 23.8933L20.1346 22.8165L22.2883 20.6629L21.2115 19.586L19.8197 20.9778Z" fill="black"/>
<path d="M4.06348 4.06348V27.9365H27.9365V4.06348H4.06348ZM26.4127 26.4127H5.58729V5.58729H26.4127V26.4127Z" fill="black"/>
</svg>
