<svg width="32" height="32" viewBox="0 0 32 32" fill="none" xmlns="http://www.w3.org/2000/svg">
<path d="M21.5314 11.454L20.8253 11.7131L15.6952 11.0273L12.8 11.8807L11.2863 11.6978L8.80249 16.0102L9.52884 19.6419L15.4209 23.294L17.1733 22.7353L19.1796 23.7918L23.2126 18.0623V16.1016L21.5314 11.454Z" fill="white"/>
<path d="M24.8483 8.005L20.8102 9.46278L21.0134 10.0215L20.6527 10.1536L15.8985 9.51865C15.4667 9.46278 15.0299 9.59484 14.6997 9.87928L13.9531 10.5294L12.1093 10.2755L12.3429 9.86913L8.64005 7.73071L4.10925 15.5783L7.81211 17.7167L8.22862 16.9904C8.42163 17.2393 8.66544 17.4983 8.97529 17.7523L8.72132 18.1586C8.43179 18.6209 8.43179 19.2101 8.72132 19.7028C8.98036 20.1548 9.45274 20.4647 9.97592 20.5155C10.1131 20.5307 10.2451 20.5206 10.3823 20.5002C10.4178 20.6221 10.4635 20.744 10.5296 20.8558C10.7988 21.318 11.2661 21.6177 11.7893 21.6736C11.9162 21.6888 12.0432 21.6786 12.1651 21.6634C12.2007 21.8158 12.2515 21.9682 12.3327 22.1155C12.5969 22.5726 13.0693 22.8774 13.5873 22.9282C13.7448 22.9434 13.8921 22.9383 14.0394 22.9079C14.0851 22.8977 14.1308 22.8825 14.1766 22.8672C14.1918 22.9028 14.202 22.9383 14.2223 22.9688C14.4762 23.4006 14.9181 23.685 15.4058 23.7409C15.5531 23.7561 15.7105 23.751 15.8629 23.7206C16.2337 23.6494 16.5385 23.4513 16.7162 23.1618L16.7873 23.0501L18.2959 24.0406C18.5347 24.198 18.814 24.2742 19.0985 24.264C19.1848 24.264 19.2762 24.2488 19.3626 24.2285C19.7283 24.1421 20.0432 23.9237 20.2464 23.6037C20.4293 23.3244 20.5054 22.9942 20.475 22.6691C20.8254 22.5828 21.1302 22.3745 21.3283 22.0698C21.5213 21.7802 21.5924 21.4348 21.5416 21.0945C21.8515 21.0031 22.1308 20.8101 22.3188 20.5206C22.5118 20.231 22.5778 19.8856 22.527 19.5402C22.842 19.4386 23.1366 19.2304 23.3347 18.9206C23.5886 18.5294 23.6445 18.0672 23.5277 17.6659L23.7258 17.5491L23.8426 17.8691L27.8807 16.4113L24.8381 7.99484L24.8483 8.005ZM12.5918 13.7447L15.6953 11.0272L20.8254 11.7129L21.5315 11.4539L23.2077 16.1015L22.9283 16.264L20.4293 14.4761C20.155 14.2577 19.7893 14.1409 19.454 14.146L17.6864 14.1866L16.127 12.9726C15.4616 12.4545 14.5067 12.4698 13.8616 13.0133L12.7594 13.9377C12.7086 13.9783 12.6375 13.9733 12.5918 13.9275C12.5613 13.8971 12.5562 13.8615 12.5562 13.8361C12.5562 13.8107 12.5664 13.7752 12.5969 13.7498L12.5918 13.7447ZM10.9207 18.6767L10.4839 19.3777C10.4534 19.4234 10.367 19.4742 10.2553 19.4945C10.2045 19.5047 10.1435 19.5098 10.0826 19.5047C9.88449 19.4844 9.70163 19.3625 9.60005 19.1898C9.50354 19.0272 9.49846 18.8393 9.58989 18.6971L10.0267 17.9961C10.0673 17.925 10.1435 17.8894 10.2248 17.8742C10.2908 17.864 10.3569 17.864 10.4229 17.8742C10.621 17.8945 10.8039 18.0164 10.9054 18.1891C11.002 18.3517 11.007 18.5396 10.9156 18.6818L10.9207 18.6767ZM12.734 19.8399L12.2972 20.5409C12.2667 20.5866 12.1804 20.6374 12.0686 20.6577C12.0178 20.6679 11.9569 20.6729 11.8959 20.6679C11.6978 20.6475 11.515 20.5256 11.4134 20.3529C11.3169 20.1904 11.3118 19.9974 11.3981 19.8602L11.7943 19.2304C11.8553 19.1339 11.962 19.0628 12.0889 19.0425C12.1397 19.0323 12.1905 19.0323 12.2413 19.0374C12.4394 19.0577 12.6223 19.1796 12.7239 19.3523C12.8204 19.5148 12.8254 19.7028 12.7391 19.845L12.734 19.8399ZM14.5372 21.0945L14.141 21.7294C14.08 21.8259 13.9734 21.8971 13.8566 21.9174C13.8058 21.9275 13.755 21.9275 13.6991 21.9225C13.501 21.9021 13.3181 21.7802 13.2166 21.6075C13.12 21.445 13.115 21.252 13.2013 21.1148L13.628 20.4291C13.6788 20.3529 13.76 20.3072 13.8515 20.292C13.9124 20.2818 13.9785 20.2818 14.0394 20.2869C14.2375 20.3072 14.4204 20.4291 14.522 20.6018C14.6185 20.7644 14.6235 20.9523 14.5321 21.0945H14.5372ZM16.1016 22.2475L15.8578 22.6386C15.8324 22.6742 15.7664 22.7148 15.68 22.7301C15.6343 22.7402 15.5785 22.7402 15.5277 22.7352C15.36 22.7148 15.1975 22.6133 15.1112 22.4609C15.0756 22.3999 15.0553 22.3339 15.0502 22.2679L15.4921 21.5618C15.7207 21.5618 15.9137 21.6126 16.0915 21.8361C16.1727 21.9733 16.1778 22.1307 16.1067 22.2425L16.1016 22.2475ZM22.527 18.3923C22.3848 18.6107 22.1359 18.692 21.948 18.6056C21.9378 18.6006 21.9327 18.5904 21.9226 18.5853L20.4242 17.5796C20.2007 17.4323 19.8959 17.4933 19.7486 17.7218C19.6013 17.9453 19.6623 18.2501 19.8908 18.3974L21.3893 19.4031C21.4858 19.464 21.5467 19.5606 21.5721 19.6723C21.5975 19.784 21.5721 19.8958 21.5112 19.9923C21.3842 20.1904 21.12 20.2463 20.927 20.1142L19.4134 19.0983C19.1848 18.951 18.88 19.012 18.7327 19.2456C18.5854 19.4742 18.6515 19.7739 18.875 19.9212L20.3886 20.932C20.3886 20.932 20.3988 20.932 20.3988 20.9371C20.4953 20.998 20.5562 21.0945 20.5816 21.2063C20.607 21.3231 20.5816 21.4399 20.5156 21.5364C20.4496 21.638 20.3531 21.704 20.2362 21.7294C20.1245 21.7548 20.0077 21.7294 19.9162 21.6685L18.3975 20.6526C18.174 20.5053 17.8693 20.5663 17.722 20.7948C17.5746 21.0183 17.6356 21.3231 17.8642 21.4704L19.3372 22.4609C19.4286 22.5218 19.4896 22.6133 19.5099 22.725C19.5302 22.8418 19.5099 22.9688 19.4337 23.0755C19.3626 23.1821 19.261 23.2533 19.1442 23.2837C19.0375 23.3091 18.9258 23.2888 18.8343 23.2329L17.1581 22.1307C17.1683 21.8564 17.1073 21.5771 16.96 21.3231L16.9245 21.2621L16.8788 21.2063C16.5435 20.7898 16.1067 20.5764 15.5734 20.5561C15.5378 20.3986 15.487 20.2412 15.4007 20.0939C15.1366 19.6367 14.6642 19.332 14.1461 19.2812C14.0242 19.2659 13.8972 19.271 13.7702 19.2863C13.7347 19.1339 13.6839 18.9815 13.6026 18.8393C13.3385 18.3872 12.8712 18.0825 12.3531 18.0266C12.2159 18.0113 12.0737 18.0164 11.9366 18.0367C11.901 17.9148 11.8553 17.7929 11.7893 17.6761C11.5302 17.2291 11.068 16.9244 10.5499 16.8634C10.3721 16.838 10.1994 16.8431 10.0318 16.8786C9.89973 16.904 9.7829 16.9498 9.67116 17.0056C9.22925 16.6602 8.95497 16.3047 8.79751 16.0152L11.2864 11.7079L12.4343 11.8653L11.5912 12.6018C11.2559 12.8964 11.0477 13.3231 11.0273 13.7701C11.007 14.2171 11.1747 14.659 11.4845 14.984C12.0839 15.6037 13.0693 15.6596 13.7296 15.106L14.8318 14.1815C14.9334 14.0952 15.0807 14.0952 15.1823 14.1764L16.7416 15.3904C17.0159 15.6037 17.3512 15.7206 17.7067 15.7104L19.5048 15.6952L22.2629 17.6659L22.5829 17.9199C22.6388 18.0621 22.6235 18.2399 22.522 18.3923H22.527Z" fill="black"/>
</svg>
