<svg width="32" height="32" viewBox="0 0 32 32" fill="none" xmlns="http://www.w3.org/2000/svg">
<g clip-path="url(#clip0_899_72136)">
<path d="M11.2508 14.2069V13.4602C11.2508 13.0387 11.5911 12.6983 12.0127 12.6983H19.2914V7.10596H5.6127V14.212H7.12635V16.1828L7.61905 15.6799L9.04635 14.212H11.2559L11.2508 14.2069Z" fill="white"/>
<path d="M19.5505 14.2272H12.7746V21.3333H15.9136L16.6705 19.2914C16.7721 18.9866 17.0616 18.7784 17.3867 18.7784H20.3733C20.6984 18.7784 20.9879 18.9866 21.0895 19.2914L21.8463 21.3333H22.9638L23.3955 21.7142L24.8838 23.0298V21.3282H26.4482V14.2222H19.5454L19.5505 14.2272ZM18.88 18.2603C18.0368 18.2603 17.3562 17.5796 17.3562 16.7365C17.3562 16.325 17.5238 15.9542 17.7879 15.6799C18.0673 15.3955 18.4533 15.2126 18.88 15.2126C19.1238 15.2126 19.3473 15.2736 19.5505 15.3752C20.0533 15.6241 20.4038 16.1371 20.4038 16.7365C20.4038 17.5796 19.7232 18.2603 18.88 18.2603Z" fill="white"/>
<path d="M27.2153 12.7035H20.8152V6.34418C20.8152 5.92259 20.4749 5.58228 20.0533 5.58228H4.8508C4.42922 5.58228 4.0889 5.92259 4.0889 6.34418V14.974C4.0889 15.3956 4.42922 15.7461 4.8508 15.7461L5.58731 15.7562V19.322L9.66604 15.7359H11.2508V22.0953C11.2508 22.5169 11.5911 22.8572 12.0127 22.8572H22.3899L26.4127 26.4128V22.8572H27.2153C27.6368 22.8572 27.9772 22.5169 27.9772 22.0953V13.4654C27.9772 13.0439 27.6368 12.7035 27.2153 12.7035ZM11.2508 13.4654V14.2121H9.04128L7.12636 16.1829V14.2121H5.61271V7.10608H19.2914V12.7035H12.0127C11.5911 12.7035 11.2508 13.0439 11.2508 13.4654ZM26.4533 21.3334H24.8889V23.035L23.4006 21.7194L22.9689 21.3385H21.8514L21.0946 19.2966C20.993 18.9918 20.7035 18.7835 20.3784 18.7835H17.3918C17.0667 18.7835 16.7772 18.9918 16.6756 19.2966L15.9187 21.3385H12.7797V14.2324H26.4584V21.3385L26.4533 21.3334Z" fill="black"/>
<path d="M18.88 18.2603C19.7216 18.2603 20.4038 17.578 20.4038 16.7365C20.4038 15.8949 19.7216 15.2126 18.88 15.2126C18.0384 15.2126 17.3562 15.8949 17.3562 16.7365C17.3562 17.578 18.0384 18.2603 18.88 18.2603Z" fill="black"/>
</g>
<defs>
<clipPath id="clip0_899_72136">
<rect width="32" height="32" fill="white"/>
</clipPath>
</defs>
</svg>
