<svg width="32" height="32" viewBox="0 0 32 32" fill="none" xmlns="http://www.w3.org/2000/svg">
<path d="M6.30337 18.0317L5.69385 21.0794H13.5567L12.9472 18.0317H6.30337Z" fill="white"/>
<path d="M19.3471 10.9207H12.7033L12.0938 13.9683H19.9566L19.3471 10.9207Z" fill="white"/>
<path d="M19.0526 18.0317L18.4431 21.0794H26.306L25.6964 18.0317H19.0526Z" fill="white"/>
<path d="M14.3441 17.2392C14.2577 16.8125 13.8819 16.5027 13.445 16.5027H5.80059C5.36376 16.5027 4.98789 16.8125 4.90154 17.2392L4.04821 21.5059C3.93646 22.0697 4.36821 22.5979 4.94725 22.5979H14.2984C14.8774 22.5979 15.3092 22.0697 15.1974 21.5059L14.3441 17.2392ZM5.69392 21.0741L6.30344 18.0265H12.9473L13.5568 21.0741H5.69392Z" fill="black"/>
<path d="M11.3472 15.492H20.6983C21.2773 15.492 21.7091 14.9637 21.5973 14.3999L20.744 10.1332C20.6576 9.70657 20.2818 9.39673 19.8449 9.39673H12.2005C11.7637 9.39673 11.3878 9.70657 11.3014 10.1332L10.4481 14.3999C10.3364 14.9637 10.7681 15.492 11.3472 15.492ZM12.6983 10.9205H19.3421L19.9516 13.9682H12.0887L12.6983 10.9205Z" fill="black"/>
<path d="M27.9467 21.5059L27.0933 17.2392C27.007 16.8125 26.6311 16.5027 26.1943 16.5027H18.5499C18.113 16.5027 17.7372 16.8125 17.6508 17.2392L16.7975 21.5059C16.6857 22.0697 17.1175 22.5979 17.6965 22.5979H27.0476C27.6267 22.5979 28.0584 22.0697 27.9467 21.5059ZM18.4432 21.0741L19.0527 18.0265H25.6965L26.306 21.0741H18.4432Z" fill="black"/>
</svg>
