<svg width="32" height="32" viewBox="0 0 32 32" fill="none" xmlns="http://www.w3.org/2000/svg">
<path d="M7.08569 24.9041L11.0628 23.3346L8.65522 20.927L7.08569 24.9041Z" fill="white"/>
<path d="M9.68127 19.7943L12.1956 22.3136L23.9543 10.5701L21.4349 8.05078L9.68127 19.7943Z" fill="white"/>
<path d="M27.1797 7.35502L24.6552 4.83058C24.066 4.24137 23.1009 4.24137 22.5117 4.83058L8.60444 18.7226L7.52761 19.7995L7.42602 19.9011L4.38348 27.6115L12.094 24.569L27.1797 9.49851C27.4641 9.21407 27.6267 8.83312 27.6267 8.42677C27.6267 8.02042 27.4692 7.63947 27.1848 7.35502H27.1797ZM8.65523 20.922L11.0628 23.3296L7.08063 24.8991L8.65015 20.9169L8.65523 20.922ZM12.1955 22.3087L9.68126 19.7944L21.4349 8.04581L23.9543 10.5652L12.1955 22.3087Z" fill="black"/>
</svg>
