<svg width="32" height="32" viewBox="0 0 32 32" fill="none" xmlns="http://www.w3.org/2000/svg">
<path d="M13.5059 12.729L13.0792 13.5569H12.1446L6.98909 13.562L6.47607 14.0496L10.1281 15.6141L11.2608 16.1017L11.0221 17.3106L10.631 19.2865L11.6316 20.282L12.6475 21.2725L14.6285 20.8814L15.8373 20.6426L16.325 21.7753L17.9046 25.463L18.4634 24.8992V19.6776L18.4583 18.7125L19.3319 18.3011C19.6012 18.169 25.9554 14.9893 26.1129 5.95312C17.0208 6.10043 13.6431 12.4598 13.5008 12.7341L13.5059 12.729Z" fill="white"/>
<path d="M27.642 5.1555C27.6318 4.75931 27.3118 4.43931 26.9156 4.42915C26.7582 4.42915 26.5956 4.42407 26.4432 4.42407C15.9797 4.42407 12.1499 12.0431 12.1499 12.0431H6.38482L4.58672 13.7599C4.19561 14.1358 4.31243 14.786 4.81021 14.9993L9.53402 17.0209L9.06164 19.398C9.01085 19.6469 9.09212 19.9009 9.2699 20.0787L10.5601 21.3688L11.8756 22.6539C12.0178 22.7911 12.2058 22.8672 12.4039 22.8672C12.4547 22.8672 12.5004 22.8672 12.5512 22.852L14.9334 22.3796L16.9651 27.1238C17.0921 27.4184 17.3715 27.5809 17.661 27.5809C17.854 27.5809 18.047 27.5098 18.1943 27.3574L19.9975 25.5288V19.6774C19.9975 19.6774 27.8705 15.9644 27.642 5.1555ZM19.3423 18.3009L18.4686 18.7123V19.6774L18.4737 24.899L17.915 25.4628L16.3353 21.7752L15.8477 20.6425L14.6388 20.8812L12.6578 21.2723L11.642 20.2819L10.6413 19.2863L11.0324 17.3104L11.2712 16.1015L10.1385 15.6139L6.4864 14.0495L6.99942 13.5619H13.0896L13.5162 12.7288C13.6585 12.4545 17.0362 6.09518 26.1283 5.94788C25.9759 14.9892 19.6216 18.1638 19.3474 18.2958L19.3423 18.3009Z" fill="black"/>
</svg>
