<svg width="32" height="32" viewBox="0 0 32 32" fill="none" xmlns="http://www.w3.org/2000/svg">
<path d="M18.5549 11.012H16.6298H13.3841C9.89965 11.012 7.06537 13.8462 7.06537 17.3307C7.06537 20.8151 9.89965 23.6494 13.3841 23.6494H18.56C22.0444 23.6494 24.8787 20.8151 24.8787 17.3307C24.8787 13.8462 22.0444 11.012 18.56 11.012H18.5549ZM10.4431 15.1821C10.0216 15.1821 9.68124 14.8418 9.68124 14.4202C9.68124 13.9986 10.0216 13.6583 10.4431 13.6583C10.8647 13.6583 11.2051 13.9986 11.2051 14.4202C11.2051 14.8418 10.8647 15.1821 10.4431 15.1821Z" fill="white"/>
<path d="M27.1594 17.671C27.5802 17.671 27.9213 17.3299 27.9213 16.9091C27.9213 16.4883 27.5802 16.1472 27.1594 16.1472C26.7386 16.1472 26.3975 16.4883 26.3975 16.9091C26.3975 17.3299 26.7386 17.671 27.1594 17.671Z" fill="black"/>
<path d="M10.4432 15.1823C10.864 15.1823 11.2051 14.8411 11.2051 14.4204C11.2051 13.9996 10.864 13.6584 10.4432 13.6584C10.0224 13.6584 9.68127 13.9996 9.68127 14.4204C9.68127 14.8411 10.0224 15.1823 10.4432 15.1823Z" fill="black"/>
<path d="M19.1644 9.51873C19.3981 9.10222 19.5302 8.62476 19.5302 8.11174C19.5302 6.51174 18.2298 5.21143 16.6298 5.21143C15.0298 5.21143 13.7295 6.51174 13.7295 8.11174C13.7295 8.60952 13.8565 9.07682 14.0749 9.48825H13.379C12.7086 9.48825 12.0584 9.57968 11.4387 9.74222L8.64507 6.94857V11.0933C7.33967 12.0889 6.3492 13.4806 5.87174 15.0908H4.90158C4.44952 15.0908 4.0838 15.4565 4.0838 15.9086V18.3721C4.0838 18.8241 4.44952 19.1898 4.90158 19.1898H5.77523C6.17142 20.8 7.06031 22.2171 8.28444 23.2686L7.83745 25.8286C7.7511 26.3314 8.13714 26.7886 8.64507 26.7886H9.47809C9.81333 26.7886 10.113 26.5854 10.2349 26.2756L10.8597 24.7416C11.6521 25.0108 12.4952 25.1632 13.379 25.1632H18.5549C19.2609 25.1632 19.9416 25.0616 20.5917 24.8838L21.1708 26.2654C21.2978 26.5651 21.5924 26.7632 21.9175 26.7683L22.7911 26.7784C23.3092 26.7835 23.7003 26.3162 23.6038 25.8083L23.1924 23.6343C25.1276 22.207 26.3924 19.9162 26.3924 17.3257C26.3924 13.2063 23.1975 9.82857 19.1594 9.51365L19.1644 9.51873ZM18.5549 23.6444H13.379C9.89459 23.6444 7.06031 20.8102 7.06031 17.3257C7.06031 13.8413 9.89459 11.007 13.379 11.007H16.6248H18.5498C22.0343 11.007 24.8686 13.8413 24.8686 17.3257C24.8686 20.8102 22.0343 23.6444 18.5498 23.6444H18.5549Z" fill="black"/>
</svg>
