<svg width="32" height="32" viewBox="0 0 32 32" fill="none" xmlns="http://www.w3.org/2000/svg">
<path d="M16 5.5874C10.2603 5.5874 5.58728 10.2604 5.58728 16.0001C5.58728 21.7398 10.2603 26.4128 16 26.4128C21.7397 26.4128 26.4127 21.7398 26.4127 16.0001C26.4127 10.2604 21.7397 5.5874 16 5.5874ZM20.0635 12.6985C20.7644 12.6985 21.3333 13.2674 21.3333 13.9684C21.3333 14.6693 20.7644 15.2382 20.0635 15.2382C19.3625 15.2382 18.7936 14.6693 18.7936 13.9684C18.7936 13.2674 19.3625 12.6985 20.0635 12.6985ZM11.9365 12.6985C12.6374 12.6985 13.2063 13.2674 13.2063 13.9684C13.2063 14.6693 12.6374 15.2382 11.9365 15.2382C11.2355 15.2382 10.6666 14.6693 10.6666 13.9684C10.6666 13.2674 11.2355 12.6985 11.9365 12.6985ZM22.2933 19.6471C20.9676 21.8617 18.5397 23.2382 15.9644 23.2382C13.3892 23.2382 10.819 21.7855 9.51871 19.4439C9.31553 19.0782 9.4476 18.6109 9.81331 18.4077C10.1841 18.2045 10.6463 18.3366 10.8495 18.7023C11.8806 20.5563 13.8412 21.7144 15.9644 21.7144C18.0876 21.7144 19.9212 20.6477 20.9879 18.8649C21.2063 18.5042 21.6736 18.3874 22.0343 18.6007C22.3949 18.8191 22.5117 19.2865 22.2984 19.6471H22.2933Z" fill="white"/>
<path d="M16 4.06348C9.40697 4.06348 4.06348 9.40697 4.06348 16C4.06348 22.593 9.40697 27.9365 16 27.9365C22.593 27.9365 27.9365 22.593 27.9365 16C27.9365 9.40697 22.593 4.06348 16 4.06348ZM16 26.4127C10.2603 26.4127 5.58729 21.7397 5.58729 16C5.58729 10.2603 10.2603 5.58729 16 5.58729C21.7397 5.58729 26.4127 10.2603 26.4127 16C26.4127 21.7397 21.7397 26.4127 16 26.4127Z" fill="black"/>
<path d="M11.9365 15.2382C12.6378 15.2382 13.2063 14.6696 13.2063 13.9683C13.2063 13.267 12.6378 12.6985 11.9365 12.6985C11.2352 12.6985 10.6666 13.267 10.6666 13.9683C10.6666 14.6696 11.2352 15.2382 11.9365 15.2382Z" fill="black"/>
<path d="M20.0635 15.2382C20.7648 15.2382 21.3333 14.6696 21.3333 13.9683C21.3333 13.267 20.7648 12.6985 20.0635 12.6985C19.3622 12.6985 18.7936 13.267 18.7936 13.9683C18.7936 14.6696 19.3622 15.2382 20.0635 15.2382Z" fill="black"/>
<path d="M22.0292 18.6007C21.6685 18.3823 21.2012 18.5042 20.9828 18.8648C19.9161 20.6476 18.0368 21.7143 15.9593 21.7143C13.8819 21.7143 11.8755 20.5613 10.8444 18.7023C10.6412 18.3365 10.179 18.2045 9.80821 18.4076C9.4425 18.6108 9.31043 19.0781 9.51361 19.4438C10.8139 21.7854 13.2876 23.2381 15.9593 23.2381C18.6311 23.2381 20.9625 21.8616 22.2882 19.647C22.5066 19.2864 22.3847 18.8191 22.0241 18.6007H22.0292Z" fill="black"/>
</svg>
