<svg width="32" height="32" viewBox="0 0 32 32" fill="none" xmlns="http://www.w3.org/2000/svg">
<path d="M21.8412 14.2224H17.7777V10.1589H14.2222V14.2224H10.1587V17.778H14.2222V21.8415H17.7777V17.778H21.8412V14.2224Z" fill="white"/>
<path d="M5.58728 5.5874V26.4128H26.4127V5.5874H5.58728ZM19.3016 23.3652H12.6984V19.3017H8.6349V12.6985H12.6984V8.63502H19.3016V12.6985H23.3651V19.3017H19.3016V23.3652Z" fill="white"/>
<path d="M12.6984 23.3652H14.2222H17.7777H19.3015V23.3347H12.6984V23.3652Z" fill="black"/>
<path d="M12.6984 19.3017V23.3652H19.3016V19.3017H23.365V12.6985H19.3016V8.63501H12.6984V12.6985H8.63489V19.3017H12.6984ZM10.1587 14.2223H14.2222V10.1588H17.7777V14.2223H21.8412V17.7779H17.7777V21.8414H14.2222V17.7779H10.1587V14.2223Z" fill="black"/>
<path d="M4.06348 4.06348V27.9365H27.9365V4.06348H4.06348ZM26.4127 26.4127H5.58729V5.58729H26.4127V26.4127Z" fill="black"/>
</svg>
