<svg width="32" height="32" viewBox="0 0 32 32" fill="none" xmlns="http://www.w3.org/2000/svg">
<path d="M7.11108 24.8889H18.7936V7.11108H7.11108V24.8889ZM13.7143 8.62473H17.2698V10.1485H13.7143V8.62473ZM13.7143 11.6825H17.2698V13.2063H13.7143V11.6825ZM8.63489 8.62473H12.1904V10.1485H8.63489V8.62473ZM8.63489 11.6825H12.1904V13.2063H8.63489V11.6825ZM8.63489 14.7301H12.1904V16.2539H8.63489V14.7301Z" fill="white"/>
<path d="M24.8888 16.2539H20.3174V24.8888H24.8888V16.2539Z" fill="white"/>
<path d="M12.1904 8.62476H8.63489V10.1486H12.1904V8.62476Z" fill="black"/>
<path d="M17.2698 8.62476H13.7142V10.1486H17.2698V8.62476Z" fill="black"/>
<path d="M12.1904 11.6826H8.63489V13.2064H12.1904V11.6826Z" fill="black"/>
<path d="M17.2698 11.6826H13.7142V13.2064H17.2698V11.6826Z" fill="black"/>
<path d="M12.1904 14.7302H8.63489V16.254H12.1904V14.7302Z" fill="black"/>
<path d="M27.1746 24.889H26.4127V14.7303H20.3174V5.5874H5.58729V24.889H4.82538C4.40379 24.889 4.06348 25.2293 4.06348 25.6509C4.06348 26.0725 4.40379 26.4128 4.82538 26.4128H27.1746C27.5962 26.4128 27.9365 26.0725 27.9365 25.6509C27.9365 25.2293 27.5962 24.889 27.1746 24.889ZM7.1111 24.889V7.11121H18.7936V24.889H7.1111ZM20.3174 24.889V16.2541H24.8889V24.889H20.3174Z" fill="black"/>
</svg>
