<svg width="32" height="32" viewBox="0 0 32 32" fill="none" xmlns="http://www.w3.org/2000/svg">
<path d="M16 18.2806C16.7237 18.2806 17.3105 17.6939 17.3105 16.9701C17.3105 16.2464 16.7237 15.6597 16 15.6597C15.2762 15.6597 14.6895 16.2464 14.6895 16.9701C14.6895 17.6939 15.2762 18.2806 16 18.2806Z" fill="white"/>
<path d="M14.7708 21.8564L13.9835 26.4379H18.0216L17.219 21.8462L14.7708 21.8564Z" fill="white"/>
<path d="M16 19.8043C17.5644 19.8043 18.8343 18.5294 18.8343 16.97C18.8343 15.4107 17.5594 14.1357 16 14.1357C14.4406 14.1357 13.1657 15.4107 13.1657 16.97C13.1657 18.5294 14.4406 19.8043 16 19.8043ZM16 15.6545C16.7263 15.6545 17.3105 16.2437 17.3105 16.9649C17.3105 17.6862 16.7213 18.2754 16 18.2754C15.2787 18.2754 14.6895 17.6862 14.6895 16.9649C14.6895 16.2437 15.2787 15.6545 16 15.6545Z" fill="black"/>
<path d="M18.6057 20.9318C18.5448 20.5813 18.24 20.3223 17.8794 20.3223L14.1054 20.3324C13.7448 20.3324 13.44 20.5915 13.3791 20.947L12.3225 27.1032C12.2464 27.5553 12.5918 27.9667 13.0489 27.9667H18.9562C19.4133 27.9667 19.7638 27.5553 19.6825 27.1032L18.6057 20.9369V20.9318ZM13.9835 26.4378L14.7708 21.8562L17.2191 21.8461L18.0216 26.4378H13.9835Z" fill="black"/>
<path d="M14.9587 7.18217C10.9663 7.63931 7.71555 10.819 7.1873 14.8012C6.74032 18.1333 8.15746 21.1657 10.5346 23.0196C10.9917 23.3752 11.6571 23.1212 11.7587 22.5523C11.8095 22.2628 11.6876 21.9834 11.459 21.8057C9.69651 20.4241 8.57397 18.2704 8.62984 15.8526C8.71111 12.033 11.8197 8.83804 15.6343 8.6501C19.8654 8.44693 23.3702 11.8298 23.3702 16.0152C23.3702 18.3568 22.2679 20.4444 20.5613 21.7955C20.3378 21.9733 20.2159 22.2526 20.2667 22.532C20.3632 23.0958 21.0337 23.3549 21.4857 22.9993C23.5581 21.3688 24.894 18.8495 24.894 16.0152C24.894 10.7682 20.3276 6.56756 14.9587 7.17709V7.18217Z" fill="black"/>
<path d="M14.6286 4.15472C9.18349 4.76425 4.78476 9.1325 4.13968 14.5725C3.54539 19.596 6.09524 24.0963 10.0724 26.3769C10.5244 26.636 11.1035 26.3566 11.1898 25.8385C11.2457 25.5185 11.0832 25.2036 10.8038 25.0411C7.67492 23.2379 5.56698 19.855 5.57714 15.9896C5.5873 10.5242 9.97079 5.90203 15.426 5.60742C21.4298 5.28742 26.4127 10.0773 26.4127 16.01C26.4127 19.85 24.32 23.2074 21.2165 25.0106C20.9371 25.1731 20.7797 25.4881 20.8356 25.8081V25.8182C20.927 26.3312 21.5009 26.6157 21.9581 26.3516C25.5289 24.2843 27.9416 20.4239 27.9416 16.01C27.9416 8.97504 21.826 3.33695 14.6286 4.14457V4.15472Z" fill="black"/>
</svg>
