<svg width="32" height="32" viewBox="0 0 32 32" fill="none" xmlns="http://www.w3.org/2000/svg">
<path d="M7.09583 22.334C7.09583 23.7156 8.21329 24.833 9.59487 24.833C10.9765 24.833 12.0939 23.7156 12.0939 22.334H7.09583Z" fill="#E1DCCA"/>
<path d="M24.8126 22.334H19.8856C19.8856 22.8521 20.0431 23.3346 20.3123 23.7308C20.7593 24.3962 21.5212 24.833 22.3847 24.833C22.7301 24.833 23.0602 24.7619 23.3599 24.6349C24.259 24.254 24.8888 23.3651 24.8888 22.334H24.8177H24.8126Z" fill="#E1DCCA"/>
<path d="M25.6508 12.6832C26.0724 12.6832 26.4127 12.3429 26.4127 11.9213C26.4127 11.4997 26.0724 11.1594 25.6508 11.1594H16.7619V6.36444C16.7619 5.94286 16.4216 5.60254 16 5.60254C15.5784 5.60254 15.2381 5.94286 15.2381 6.36444V11.1594H6.34919C5.9276 11.1594 5.58728 11.4997 5.58728 11.9213C5.58728 12.3429 5.9276 12.6832 6.34919 12.6832H8.30982L5.58728 22.334C5.58728 24.5791 7.40569 26.3975 9.65077 26.3975C11.8959 26.3975 13.7143 24.5791 13.7143 22.334L10.9917 12.6832H21.0082L18.2857 22.334C18.2857 24.5791 20.1041 26.3975 22.3492 26.3975C24.5943 26.3975 26.4127 24.5791 26.4127 22.334L23.6901 12.6832H25.6508ZM9.5949 24.833C8.21331 24.833 7.09585 23.7156 7.09585 22.334H12.0939C12.0939 23.7156 10.9765 24.833 9.5949 24.833ZM11.6724 20.8102H7.58855L9.63045 13.44L11.6724 20.8102ZM22.3797 24.833C20.9981 24.833 19.8806 23.7156 19.8806 22.334H24.8787C24.8787 23.7156 23.7612 24.833 22.3797 24.833ZM24.386 20.8102H20.3022L22.3441 13.44L24.386 20.8102Z" fill="black"/>
</svg>
