<svg width="32" height="32" viewBox="0 0 32 32" fill="none" xmlns="http://www.w3.org/2000/svg">
<g clip-path="url(#clip0_889_71358)">
<path d="M12.1905 7.61914H9.14288V10.6668H12.1905V7.61914Z" fill="#E1DCCA"/>
<path d="M12.1905 13.7144H9.14288V16.762H12.1905V13.7144Z" fill="#E1DCCA"/>
<path d="M15.2381 4.57153H12.1905V7.61915H15.2381V4.57153Z" fill="#E1DCCA"/>
<path d="M15.2381 10.6667H12.1905V13.7144H15.2381V10.6667Z" fill="#E1DCCA"/>
<path d="M18.2857 7.61914H15.2381V10.6668H18.2857V7.61914Z" fill="#E1DCCA"/>
<path d="M18.2857 13.7144H15.2381V16.762H18.2857V13.7144Z" fill="#E1DCCA"/>
<path d="M21.3334 4.57153H18.2858V7.61915H21.3334V4.57153Z" fill="#E1DCCA"/>
<path d="M21.3334 10.6667H18.2858V13.7144H21.3334V10.6667Z" fill="#E1DCCA"/>
<path d="M24.381 7.61914H21.3334V10.6668H24.381V7.61914Z" fill="#E1DCCA"/>
<path d="M24.381 13.7144H21.3334V16.762H24.381V13.7144Z" fill="#E1DCCA"/>
<path d="M7.87299 4.06348C7.4514 4.06348 7.11108 4.40379 7.11108 4.82538V27.1746C7.11108 27.5962 7.4514 27.9365 7.87299 27.9365C8.29458 27.9365 8.63489 27.5962 8.63489 27.1746V4.82538C8.63489 4.40379 8.29458 4.06348 7.87299 4.06348Z" fill="black"/>
<path d="M12.1904 10.6667H9.14282V13.7144H12.1904V10.6667Z" fill="black"/>
<path d="M12.1904 4.57153H9.14282V7.61915H12.1904V4.57153Z" fill="black"/>
<path d="M15.238 7.61914H12.1904V10.6668H15.238V7.61914Z" fill="black"/>
<path d="M15.238 13.7144H12.1904V16.762H15.238V13.7144Z" fill="black"/>
<path d="M18.2857 10.6667H15.238V13.7144H18.2857V10.6667Z" fill="black"/>
<path d="M18.2857 4.57153H15.238V7.61915H18.2857V4.57153Z" fill="black"/>
<path d="M21.3333 7.61914H18.2857V10.6668H21.3333V7.61914Z" fill="black"/>
<path d="M21.3333 13.7144H18.2857V16.762H21.3333V13.7144Z" fill="black"/>
<path d="M24.3809 10.6667H21.3333V13.7144H24.3809V10.6667Z" fill="black"/>
<path d="M24.3809 4.57153H21.3333V7.61915H24.3809V4.57153Z" fill="black"/>
</g>
<defs>
<clipPath id="clip0_889_71358">
<rect width="32" height="32" fill="white"/>
</clipPath>
</defs>
</svg>
