<svg width="32" height="32" viewBox="0 0 32 32" fill="none" xmlns="http://www.w3.org/2000/svg">
<path d="M7.09595 24.8989L24.889 24.8887V12.6982L7.09595 12.7084V24.8989ZM20.8255 14.2221H23.3652V16.7617H20.8255V14.2221ZM19.3118 20.8303H16.7721V18.2906H19.3118V20.8303ZM16.762 14.2221H19.3017V16.7617H16.762V14.2221ZM12.6934 14.2221H15.2331V16.7617H12.6934V14.2221ZM12.6934 18.2906H15.2331V20.8303H12.6934V18.2906ZM8.62484 18.2906H11.1645V20.8303H8.62484V18.2906Z" fill="#E1DCCA"/>
<path d="M6.34408 10.169L25.6457 10.1589C26.0723 10.1589 26.4177 9.81348 26.4177 9.38682C26.4177 8.96015 26.0723 8.61475 25.6457 8.61475H23.3701V8.10682C23.3701 7.26364 22.6895 6.58301 21.8463 6.58301C21.0031 6.58301 20.3225 7.26364 20.3225 8.10682V8.61475H11.6673V8.10682C11.6673 7.26364 10.9866 6.58301 10.1434 6.58301C9.30027 6.58301 8.61964 7.26364 8.61964 8.10682V8.61475L6.33901 8.62491C5.91234 8.62491 5.57202 8.97031 5.57202 9.39698C5.57202 9.82364 5.91742 10.169 6.34408 10.169Z" fill="black"/>
<path d="M5.57202 11.957V25.6561C5.57202 26.0827 5.91742 26.4281 6.34408 26.4281L25.6457 26.418C26.0723 26.418 26.4177 26.0726 26.4177 25.6459V11.1748L6.34408 11.185C5.91742 11.185 5.57202 11.5304 5.57202 11.957ZM7.09583 12.7088L24.8888 12.6986V24.8891L7.09583 24.8993V12.7088Z" fill="black"/>
<path d="M15.233 14.2222H12.6934V16.7619H15.233V14.2222Z" fill="black"/>
<path d="M19.2965 14.2222H16.7568V16.7619H19.2965V14.2222Z" fill="black"/>
<path d="M23.3651 14.2222H20.8254V16.7619H23.3651V14.2222Z" fill="black"/>
<path d="M11.1644 18.291H8.62476V20.8307H11.1644V18.291Z" fill="black"/>
<path d="M15.233 18.291H12.6934V20.8307H15.233V18.291Z" fill="black"/>
<path d="M19.3117 18.291H16.772V20.8307H19.3117V18.291Z" fill="black"/>
</svg>
