<svg width="32" height="32" viewBox="0 0 32 32" fill="none" xmlns="http://www.w3.org/2000/svg">
<path d="M14.9842 19.8095C17.7068 19.8095 19.9823 17.7727 20.282 15.0704L20.3175 14.7504V9.14282H9.65088V14.7504L9.68643 15.0704C9.98612 17.7727 12.2617 19.8095 14.9842 19.8095Z" fill="#E1DCCA"/>
<path d="M27.1746 22.8569H4.82538C4.40379 22.8569 4.06348 23.1973 4.06348 23.6188C4.06348 24.0404 4.40379 24.3807 4.82538 24.3807H27.1746C27.5962 24.3807 27.9365 24.0404 27.9365 23.6188C27.9365 23.1973 27.5962 22.8569 27.1746 22.8569Z" fill="black"/>
<path d="M14.9841 21.3332C18.3365 21.3332 21.12 18.9256 21.7143 15.7459H22.8977C25.1225 15.7205 26.9206 13.9123 26.9206 11.6824C26.9206 9.45259 25.153 7.67482 22.9536 7.62402H21.8412H8.88378C8.46219 7.62402 8.12695 7.96434 8.12695 8.38085V15.2431C8.50791 18.6716 11.4539 21.3383 14.9841 21.3383V21.3332ZM22.8571 9.14275C24.259 9.14275 25.3968 10.2805 25.3968 11.6824C25.3968 13.0843 24.259 14.2221 22.8571 14.2221H21.8412V9.14275H22.8571ZM9.65076 9.14275H20.3174V14.7504L20.2819 15.0704C19.9822 17.7726 17.7066 19.8094 14.9841 19.8094C12.2616 19.8094 9.986 17.7726 9.68632 15.0704L9.65076 14.7504V9.14275Z" fill="black"/>
</svg>
