<svg width="32" height="32" viewBox="0 0 32 32" fill="none" xmlns="http://www.w3.org/2000/svg">
<g clip-path="url(#clip0_889_70927)">
<path d="M17.8692 18.108L19.8958 12.6426L14.4304 14.6692L14.4203 14.6946L17.8641 18.1131L17.8692 18.108Z" fill="#E1DCCA"/>
<path d="M16 5.58728C10.2603 5.58728 5.58728 10.2603 5.58728 16C5.58728 21.7397 10.2603 26.4127 16 26.4127C21.7397 26.4127 26.4127 21.7397 26.4127 16C26.4127 10.2603 21.7397 5.58728 16 5.58728ZM19.0527 19.2965L9.81331 22.7251L13.2419 13.4857L22.4812 10.0571L19.0527 19.2965Z" fill="#E1DCCA"/>
<path fill-rule="evenodd" clip-rule="evenodd" d="M16 4.06348C9.40697 4.06348 4.06348 9.40697 4.06348 16C4.06348 22.593 9.40697 27.9365 16 27.9365C22.593 27.9365 27.9365 22.593 27.9365 16C27.9365 9.40697 22.593 4.06348 16 4.06348ZM16 26.4127C10.2603 26.4127 5.58729 21.7397 5.58729 16C5.58729 10.2603 10.2603 5.58729 16 5.58729C21.7397 5.58729 26.4127 10.2603 26.4127 16C26.4127 21.7397 21.7397 26.4127 16 26.4127Z" fill="black"/>
<path fill-rule="evenodd" clip-rule="evenodd" d="M9.81329 22.7251L19.0527 19.2965L22.4812 10.0571L13.2419 13.4857L9.81329 22.7251ZM19.8958 12.6425L17.8692 18.1079L14.4254 14.6946L14.4355 14.6692L19.9009 12.6425H19.8958Z" fill="black"/>
</g>
<defs>
<clipPath id="clip0_889_70927">
<rect width="32" height="32" fill="white"/>
</clipPath>
</defs>
</svg>
