<svg width="32" height="32" viewBox="0 0 32 32" fill="none" xmlns="http://www.w3.org/2000/svg">
<path d="M23.873 5.5874H8.12698V26.4128H23.873V5.5874ZM15.2381 19.3017H10.6667C10.2451 19.3017 9.90476 18.9614 9.90476 18.5398C9.90476 18.1182 10.2451 17.7779 10.6667 17.7779H15.2381C15.6597 17.7779 16 18.1182 16 18.5398C16 18.9614 15.6597 19.3017 15.2381 19.3017ZM19.8095 16.2541H10.6667C10.2451 16.2541 9.90476 15.9138 9.90476 15.4922C9.90476 15.0706 10.2451 14.7303 10.6667 14.7303H19.8095C20.2311 14.7303 20.5714 15.0706 20.5714 15.4922C20.5714 15.9138 20.2311 16.2541 19.8095 16.2541ZM19.8095 13.2065H10.6667C10.2451 13.2065 9.90476 12.8661 9.90476 12.4445C9.90476 12.023 10.2451 11.6826 10.6667 11.6826H19.8095C20.2311 11.6826 20.5714 12.023 20.5714 12.4445C20.5714 12.8661 20.2311 13.2065 19.8095 13.2065Z" fill="#E1DCCA"/>
<path d="M25.3968 4.06348H6.60317V27.9365H25.3968V4.06348ZM8.12698 26.4127V5.58729H23.873V26.4127H8.12698Z" fill="black"/>
<path d="M19.8095 14.73H10.6667C10.2451 14.73 9.90476 15.0703 9.90476 15.4919C9.90476 15.9135 10.2451 16.2538 10.6667 16.2538H19.8095C20.2311 16.2538 20.5714 15.9135 20.5714 15.4919C20.5714 15.0703 20.2311 14.73 19.8095 14.73Z" fill="black"/>
<path d="M15.2381 17.7778H10.6667C10.2451 17.7778 9.90476 18.1181 9.90476 18.5397C9.90476 18.9613 10.2451 19.3016 10.6667 19.3016H15.2381C15.6597 19.3016 16 18.9613 16 18.5397C16 18.1181 15.6597 17.7778 15.2381 17.7778Z" fill="black"/>
<path d="M19.8095 11.6826H10.6667C10.2451 11.6826 9.90476 12.0229 9.90476 12.4445C9.90476 12.8661 10.2451 13.2064 10.6667 13.2064H19.8095C20.2311 13.2064 20.5714 12.8661 20.5714 12.4445C20.5714 12.0229 20.2311 11.6826 19.8095 11.6826Z" fill="black"/>
</svg>
