<svg width="32" height="32" viewBox="0 0 32 32" fill="none" xmlns="http://www.w3.org/2000/svg">
<path d="M25.0463 16.5384H19.9314L18.9765 14.466L12.8406 14.4711L12.4342 12.9778H7.38534L5.92249 19.0629H7.43614L8.3555 26.174H11.9974L12.678 20.0787H14.405L15.9898 26.1638H17.9758L19.6063 21.0946H21.2926L22.2577 26.174H24.325L25.0057 21.0946H26.0672L25.0463 16.5384Z" fill="#E1DCCA"/>
<path d="M10.2907 9.36117C11.2659 9.36117 12.0583 8.56878 12.0583 7.59355C12.0583 6.61831 11.2659 5.82593 10.2907 5.82593C9.31545 5.82593 8.52307 6.61831 8.52307 7.59355C8.52307 8.56878 9.31545 9.36117 10.2907 9.36117Z" fill="#E1DCCA"/>
<path d="M17.1784 10.9917C18.0469 10.9917 18.753 10.2857 18.753 9.41713C18.753 8.54856 18.0469 7.84253 17.1784 7.84253C16.3098 7.84253 15.6038 8.54856 15.6038 9.41713C15.6038 10.2857 16.3098 10.9917 17.1784 10.9917Z" fill="#E1DCCA"/>
<path d="M23.5174 12.9776C24.2132 12.9776 24.7771 12.4138 24.7771 11.7179C24.7771 11.0221 24.2132 10.4583 23.5174 10.4583C22.8215 10.4583 22.2577 11.0221 22.2577 11.7179C22.2577 12.4138 22.8215 12.9776 23.5174 12.9776Z" fill="#E1DCCA"/>
<path d="M10.2908 10.8851C12.1092 10.8851 13.5822 9.40701 13.5822 7.59367C13.5822 5.78034 12.1042 4.30225 10.2908 4.30225C8.47749 4.30225 6.99939 5.78034 6.99939 7.59367C6.99939 9.40701 8.47749 10.8851 10.2908 10.8851ZM10.2908 5.82098C11.2661 5.82098 12.0584 6.61336 12.0584 7.58859C12.0584 8.56383 11.2661 9.35621 10.2908 9.35621C9.31558 9.35621 8.5232 8.56383 8.5232 7.58859C8.5232 6.61336 9.31558 5.82098 10.2908 5.82098Z" fill="black"/>
<path d="M17.1785 12.5157C18.8852 12.5157 20.2769 11.129 20.2769 9.41726C20.2769 7.70552 18.8902 6.31885 17.1785 6.31885C15.4667 6.31885 14.0801 7.70552 14.0801 9.41726C14.0801 11.129 15.4667 12.5157 17.1785 12.5157ZM17.1785 7.84774C18.0471 7.84774 18.7531 8.55377 18.7531 9.42234C18.7531 10.2909 18.0471 10.9969 17.1785 10.9969C16.3099 10.9969 15.6039 10.2909 15.6039 9.42234C15.6039 8.55377 16.3099 7.84774 17.1785 7.84774Z" fill="black"/>
<path d="M23.5175 14.5016C25.0515 14.5016 26.301 13.252 26.301 11.7181C26.301 10.1841 25.0515 8.93457 23.5175 8.93457C21.9835 8.93457 20.734 10.1841 20.734 11.7181C20.734 13.252 21.9835 14.5016 23.5175 14.5016ZM23.5175 10.4635C24.2134 10.4635 24.7772 11.0273 24.7772 11.7231C24.7772 12.419 24.2134 12.9828 23.5175 12.9828C22.8216 12.9828 22.2578 12.419 22.2578 11.7231C22.2578 11.0273 22.8216 10.4635 23.5175 10.4635Z" fill="black"/>
<path d="M27.7537 21.5824L26.2401 15.0147H21.1962L20.2464 12.9424L14.0496 12.9525L13.6483 11.4541H6.17656L4.2464 19.5658C4.1245 20.089 4.52069 20.5919 5.06418 20.5919H6.10545L7.02481 27.703H13.3689L13.8058 23.7258L14.8216 27.6878H19.1086L20.1956 24.1678L20.927 27.703H25.6661L26.3518 22.6236H26.9461C27.4896 22.6236 27.8908 22.1157 27.7588 21.5874L27.7537 21.5824ZM25.0058 21.0947L24.3201 26.1741H22.2528L21.2877 21.0947H19.6013L17.9708 26.1639H15.9848L14.4001 20.0789H12.6731L11.9924 26.1741H8.35053L7.43116 19.063H5.91751L7.38037 12.9728H12.4293L12.8305 14.4712L18.9715 14.4611L19.9213 16.5335H25.0362L26.0572 21.0947H25.0007H25.0058Z" fill="black"/>
</svg>
