<svg width="32" height="32" viewBox="0 0 32 32" fill="none" xmlns="http://www.w3.org/2000/svg">
<g clip-path="url(#clip0_996_72614)">
<path d="M18.0368 12.2313C19.0187 12.2313 19.8146 11.4354 19.8146 10.4536C19.8146 9.47172 19.0187 8.67578 18.0368 8.67578C17.055 8.67578 16.259 9.47172 16.259 10.4536C16.259 11.4354 17.055 12.2313 18.0368 12.2313Z" fill="#E1DCCA"/>
<path d="M9.90986 17.8187C10.8917 17.8187 11.6876 17.0228 11.6876 16.041C11.6876 15.0591 10.8917 14.2632 9.90986 14.2632C8.92802 14.2632 8.13208 15.0591 8.13208 16.041C8.13208 17.0228 8.92802 17.8187 9.90986 17.8187Z" fill="#E1DCCA"/>
<path d="M22.0903 23.3246C23.0721 23.3246 23.8681 22.5287 23.8681 21.5468C23.8681 20.565 23.0721 19.769 22.0903 19.769C21.1084 19.769 20.3125 20.565 20.3125 21.5468C20.3125 22.5287 21.1084 23.3246 22.0903 23.3246Z" fill="#E1DCCA"/>
<path d="M4.82538 11.1747H14.8114C15.1416 12.6528 16.4571 13.755 18.0317 13.755C19.6063 13.755 20.9219 12.6477 21.252 11.1747H27.1695C27.5911 11.1747 27.9314 10.8344 27.9314 10.4128C27.9314 9.99122 27.5911 9.6509 27.1695 9.6509H21.2267C20.866 8.21852 19.5708 7.15186 18.0267 7.15186C16.4825 7.15186 15.1873 8.21344 14.8267 9.6509H4.82538C4.40379 9.6509 4.06348 9.99122 4.06348 10.4128C4.06348 10.8344 4.40379 11.1747 4.82538 11.1747ZM18.0368 8.67567C19.0171 8.67567 19.8146 9.47313 19.8146 10.4534C19.8146 11.4338 19.0171 12.2312 18.0368 12.2312C17.0565 12.2312 16.259 11.4338 16.259 10.4534C16.259 9.47313 17.0565 8.67567 18.0368 8.67567Z" fill="black"/>
<path d="M27.1745 15.2383H13.1047C12.7441 13.8059 11.4488 12.7393 9.9047 12.7393C8.36057 12.7393 7.06533 13.8008 6.7047 15.2383H4.82025C4.39867 15.2383 4.05835 15.5786 4.05835 16.0002C4.05835 16.4218 4.39867 16.7621 4.82025 16.7621H6.6793C7.00946 18.2402 8.32502 19.3424 9.89962 19.3424C11.4742 19.3424 12.7898 18.2351 13.1199 16.7621H27.1644C27.586 16.7621 27.9263 16.4218 27.9263 16.0002C27.9263 15.5786 27.586 15.2383 27.1644 15.2383H27.1745ZM9.90978 17.8186C8.92946 17.8186 8.132 17.0212 8.132 16.0408C8.132 15.0605 8.92946 14.2631 9.90978 14.2631C10.8901 14.2631 11.6876 15.0605 11.6876 16.0408C11.6876 17.0212 10.8901 17.8186 9.90978 17.8186Z" fill="black"/>
<path d="M27.1746 20.8254H25.3155C24.9854 19.3473 23.6698 18.2451 22.0952 18.2451C20.5206 18.2451 19.2051 19.3524 18.8749 20.8254H4.82538C4.40379 20.8254 4.06348 21.1658 4.06348 21.5873C4.06348 22.0089 4.40379 22.3492 4.82538 22.3492H18.8952C19.2559 23.7816 20.5511 24.8483 22.0952 24.8483C23.6393 24.8483 24.9346 23.7867 25.2952 22.3492H27.1797C27.6013 22.3492 27.9416 22.0089 27.9416 21.5873C27.9416 21.1658 27.6013 20.8254 27.1797 20.8254H27.1746ZM22.0901 23.3245C21.1098 23.3245 20.3124 22.527 20.3124 21.5467C20.3124 20.5664 21.1098 19.7689 22.0901 19.7689C23.0705 19.7689 23.8679 20.5664 23.8679 21.5467C23.8679 22.527 23.0705 23.3245 22.0901 23.3245Z" fill="black"/>
</g>
<defs>
<clipPath id="clip0_996_72614">
<rect width="32" height="32" fill="white"/>
</clipPath>
</defs>
</svg>
