<svg width="32" height="32" viewBox="0 0 32 32" fill="none" xmlns="http://www.w3.org/2000/svg">
<path d="M23.0755 14.0954C22.3746 12.851 21.4704 12.084 20.3885 11.8097C18.4431 11.3221 16.5079 12.531 16.4927 12.5411L16.0914 12.7951L15.685 12.5462C15.685 12.5462 13.6025 11.2967 11.5961 11.8249C10.5142 12.1094 9.6152 12.8713 8.9244 14.0954L8.87361 14.1716C8.81774 14.2529 7.37012 16.3964 9.62028 20.2465C12.2108 24.6706 12.5561 24.8637 13.3688 24.8383C14.0698 24.8179 14.6387 24.5792 15.0958 24.3862C15.4158 24.2491 15.6952 24.1322 15.9796 24.1018H16.0203C16.3047 24.1322 16.5841 24.2491 16.9041 24.3862C17.3612 24.5792 17.9301 24.8179 18.6311 24.8383C19.4438 24.8687 19.7892 24.6757 22.3796 20.2465C24.6298 16.3964 23.1873 14.2529 23.1212 14.1614L23.0755 14.0903V14.0954Z" fill="#E1DCCA"/>
<path d="M15.9187 24.8535C15.9441 24.8535 15.9745 24.8637 15.9999 24.8688C16.0253 24.8637 16.0558 24.8535 16.0812 24.8535H15.9136H15.9187Z" fill="black"/>
<path d="M24.386 13.3182C23.4768 11.7132 22.2527 10.7075 20.7593 10.3367C19.2305 9.95571 17.7625 10.3265 16.7974 10.7075C16.96 9.01095 17.7625 7.2992 20.3378 7.2992C20.7593 7.2992 21.0997 6.95888 21.0997 6.5373C21.0997 6.11571 20.7593 5.77539 20.3378 5.77539C17.3866 5.77539 15.5378 7.5938 15.2736 10.6821C14.273 10.3062 12.7695 9.95063 11.2203 10.3519C9.72696 10.7379 8.51299 11.7386 7.61394 13.3182C7.33966 13.7297 5.6787 16.5284 8.30474 21.0186C10.8089 25.3005 11.5301 26.4129 13.4146 26.3621C14.4 26.3316 15.172 26.0065 15.6851 25.7881C15.7816 25.7475 15.9035 25.6967 15.9949 25.6611C16.0914 25.6967 16.2082 25.7475 16.3098 25.7881C16.8228 26.0065 17.5949 26.3316 18.5803 26.3621C18.626 26.3621 18.6717 26.3621 18.7174 26.3621C20.4901 26.3621 21.247 25.1938 23.6952 21.0135C26.3212 16.5233 24.6654 13.7195 24.386 13.3132V13.3182ZM22.3797 20.2516C19.7892 24.6757 19.4438 24.8687 18.6311 24.8433C17.9301 24.823 17.3612 24.5843 16.9041 24.3913C16.5841 24.2541 16.3047 24.1373 16.0203 24.1068H15.9797C15.6952 24.1373 15.4158 24.2541 15.0958 24.3913C14.6387 24.5843 14.0698 24.823 13.3689 24.8433C12.5562 24.8738 12.2108 24.6808 9.62029 20.2516C7.37013 16.4014 8.81267 14.2579 8.87362 14.1767L8.92442 14.1005C9.61013 12.8763 10.5092 12.1144 11.5962 11.83C13.6076 11.3068 15.6698 12.5411 15.6851 12.5513L16.0914 12.8002L16.4927 12.5462C16.4927 12.5462 18.4431 11.3271 20.3885 11.8148C21.4705 12.084 22.3746 12.856 23.0755 14.1005L23.1212 14.1716C23.1822 14.263 24.6298 16.4065 22.3797 20.2567V20.2516Z" fill="black"/>
</svg>
