<svg width="32" height="32" viewBox="0 0 32 32" fill="none" xmlns="http://www.w3.org/2000/svg">
<g clip-path="url(#clip0_905_70935)">
<path d="M22.9283 12.4851C22.9283 8.66033 19.8197 5.55176 15.9949 5.55176C12.1702 5.55176 9.06159 8.66033 9.06159 12.4851C9.06159 15.3245 10.7683 17.8489 13.4095 18.9156L13.9886 19.1492L14.2273 19.7232L16 23.9797L17.7727 19.7232L18.0114 19.1492L18.5905 18.9156C21.2317 17.8489 22.9384 15.3295 22.9384 12.4851H22.9283ZM15.9949 16.9448C13.5365 16.9448 11.5352 14.9435 11.5352 12.4851C11.5352 10.0267 13.5365 8.02541 15.9949 8.02541C18.4533 8.02541 20.4546 10.0267 20.4546 12.4851C20.4546 14.9435 18.4533 16.9448 15.9949 16.9448Z" fill="#E1DCCA"/>
<path d="M15.9949 5.55173C19.8197 5.55173 22.9283 8.6603 22.9283 12.4851C22.9283 15.3244 21.2216 17.8489 18.5803 18.9155L18.0013 19.1492L17.7625 19.7232L15.9898 23.9797L14.2171 19.7232L13.9784 19.1492L13.3994 18.9155C10.7581 17.8489 9.05143 15.3295 9.05143 12.4851C9.05143 8.6603 12.16 5.55173 15.9848 5.55173M15.9848 16.9447C18.4432 16.9447 20.4444 14.9435 20.4444 12.4851C20.4444 10.0267 18.4432 8.02538 15.9848 8.02538C13.5263 8.02538 11.5251 10.0267 11.5251 12.4851C11.5251 14.9435 13.5263 16.9447 15.9848 16.9447ZM15.9848 4.06348C11.3321 4.06348 7.56318 7.83237 7.56318 12.4851C7.56318 16.0254 9.7473 19.0476 12.8406 20.292L15.9848 27.84L19.1289 20.292C22.2222 19.0476 24.4063 16.0203 24.4063 12.4851C24.4063 7.83237 20.6375 4.06348 15.9848 4.06348ZM15.9848 15.4565C14.3441 15.4565 13.0133 14.1257 13.0133 12.4851C13.0133 10.8444 14.3441 9.51363 15.9848 9.51363C17.6254 9.51363 18.9562 10.8444 18.9562 12.4851C18.9562 14.1257 17.6254 15.4565 15.9848 15.4565Z" fill="black"/>
</g>
<defs>
<clipPath id="clip0_905_70935">
<rect width="32" height="32" fill="white"/>
</clipPath>
</defs>
</svg>
