<svg width="32" height="32" viewBox="0 0 32 32" fill="none" xmlns="http://www.w3.org/2000/svg">
<path d="M26.4026 15.233V10.6565H5.55688V24.3606H26.4026V15.233ZM19.8096 18.7987H17.2699V21.3384H14.7302V18.7987H12.1905V16.259H14.7302V13.7194H17.2699V16.259H19.8096V18.7987Z" fill="#E1DCCA"/>
<path d="M27.1644 9.13277H20.8355V6.86737C20.8355 6.44579 20.4952 6.10547 20.0736 6.10547H11.9466C11.525 6.10547 11.1847 6.44579 11.1847 6.86737V9.13277H4.79486C4.37328 9.13277 4.03296 9.47309 4.03296 9.89467V25.1226C4.03296 25.5442 4.37328 25.8845 4.79486 25.8845H27.1644C27.586 25.8845 27.9263 25.5442 27.9263 25.1226V9.89467C27.9263 9.47309 27.586 9.13277 27.1644 9.13277ZM12.7085 7.62928H19.3117V9.13277H12.7085V7.62928ZM26.4025 13.694V24.3607H5.55677V10.6566H26.4025V13.694Z" fill="black"/>
<path d="M14.725 21.3385H17.2647V18.7988H19.8044V16.2592H17.2647V13.7195H14.725V16.2592H12.1853V18.7988H14.725V21.3385Z" fill="black"/>
</svg>
