<svg width="32" height="32" viewBox="0 0 32 32" fill="none" xmlns="http://www.w3.org/2000/svg">
<path d="M15.1772 15.9239L12.6527 24.889H21.1302L19.6927 14.2833L15.2381 8.63501V10.9715L10.6667 15.5125L11.4895 17.5645L15.1772 15.9239Z" fill="#E1DCCA"/>
<path d="M22.8673 26.3773H25.666C26.0775 26.3773 26.4076 26.042 26.4076 25.6357C26.4076 25.2293 26.0724 24.8941 25.666 24.8941H22.6641L21.1708 13.8719C21.1555 13.7449 21.0997 13.6179 21.0184 13.5163L15.0146 5.90233C14.5879 5.35884 13.7092 5.6636 13.7092 6.35439V10.3417L9.21396 14.8065C9.00571 15.0147 8.93967 15.3246 9.05142 15.5938L10.3721 18.8953C10.5244 19.2814 10.9663 19.4592 11.3473 19.2915L12.8254 18.6363L11.0628 24.889H6.3238C5.91237 24.889 5.58221 25.2242 5.58221 25.6306C5.58221 26.0369 5.91745 26.3722 6.3238 26.3722H22.8622L22.8673 26.3773ZM12.6527 24.889L15.1771 15.9239L11.4844 17.5646L10.6616 15.5125L15.233 10.9715V8.63503L19.6876 14.2833L21.1251 24.889H12.6476H12.6527Z" fill="black"/>
</svg>
