<svg width="32" height="33" viewBox="0 0 32 33" fill="none" xmlns="http://www.w3.org/2000/svg">
<path d="M24.2235 19.2717L20.6273 20.4654C20.0584 20.6533 19.4489 20.4044 19.1746 19.8762L19.1035 19.7441C19.0019 19.546 18.7988 19.4292 18.5804 19.4292H18.5702L16.1473 19.4597L13.181 17.8394L8.65527 17.8495V22.106L16.447 24.1073C16.6045 24.153 16.7518 24.1428 16.8838 24.0768L24.6502 20.3841C24.7924 20.3181 24.8991 20.1962 24.9499 20.0489C25.0007 19.9016 24.9905 19.739 24.9194 19.5968C24.7721 19.3073 24.4826 19.1905 24.2235 19.2768V19.2717Z" fill="#E1DCCA"/>
<path d="M26.2603 18.8655C25.7981 17.9512 24.7162 17.5042 23.7409 17.8242L20.3987 18.9315C20.0127 18.2813 19.3371 17.8902 18.5549 17.8953L16.5333 17.9207L13.572 16.3055L8.63491 16.3156V15.5029H4.06348V24.6458H8.63491V23.6604L16.0508 25.5652C16.2438 25.621 16.4368 25.6464 16.6349 25.6464C16.9447 25.6464 17.2546 25.5753 17.5441 25.4432L25.3105 21.7505C25.8286 21.5067 26.2146 21.0699 26.3974 20.5315C26.5803 19.9931 26.5447 19.409 26.2654 18.8604L26.2603 18.8655ZM24.9498 20.0439C24.899 20.1912 24.7924 20.3131 24.6501 20.3791L16.8838 24.0718C16.7568 24.1328 16.6095 24.148 16.447 24.1023L8.65522 22.101V17.8445L13.1809 17.8344L16.1473 19.4547L18.5701 19.4242H18.5803C18.7987 19.4242 19.0019 19.5461 19.1035 19.7391L19.1746 19.8712C19.4489 20.3994 20.0584 20.6483 20.6273 20.4604L24.2235 19.2667C24.4876 19.1804 24.7771 19.3023 24.9194 19.5867C24.9905 19.729 25.0006 19.8864 24.9498 20.0388V20.0439Z" fill="black"/>
<path d="M19.2152 16.0109C21.0386 16.0109 22.5168 14.5327 22.5168 12.7093C22.5168 10.8859 21.0386 9.40771 19.2152 9.40771C17.3917 9.40771 15.9136 10.8859 15.9136 12.7093C15.9136 14.5327 17.3917 16.0109 19.2152 16.0109Z" fill="black"/>
</svg>
