<svg width="32" height="32" viewBox="0 0 32 32" fill="none" xmlns="http://www.w3.org/2000/svg">
<g clip-path="url(#clip0_889_70936)">
<path d="M4.04828 4.04321V27.9416H27.9213V4.04321H4.04828ZM26.3975 26.4178H5.57209V5.56702H26.3975V26.4178Z" fill="white"/>
<path d="M20.028 15.3904H20.3734C21.2674 15.3904 22.0343 16.071 22.1156 16.9345C22.1613 17.4272 22.0039 17.9148 21.6737 18.2755C21.3588 18.6209 20.9118 18.824 20.4496 18.824H16.6147C15.7512 18.824 14.9537 18.1942 14.8369 17.3612C14.7099 16.4825 15.294 15.6647 16.127 15.4463C16.1474 15.4412 15.9848 15.4463 16.1524 15.4361C16.5283 15.4107 16.8229 15.0856 16.8229 14.6996C16.8229 14.4913 16.7416 14.3034 16.5943 14.1612C16.4521 14.024 16.2642 13.9529 16.0661 13.9631C15.9848 13.9631 15.9188 13.9733 15.8832 13.9783C14.2629 14.2171 13.3232 15.7002 13.4553 17.3764C13.5874 19.0069 14.9943 20.2818 16.6553 20.2818H20.4547C21.2877 20.2818 22.0648 19.9517 22.654 19.3472C23.2635 18.7225 23.5835 17.8894 23.5531 17.0107C23.5023 15.3142 22.0547 13.9326 20.3277 13.9326H20.0331C19.6369 13.9326 19.3169 14.2628 19.3169 14.664C19.3169 15.0653 19.6369 15.3955 20.0331 15.3955L20.028 15.3904Z" fill="white"/>
<path d="M11.7638 18.0572H12.221C12.6172 18.0572 12.9372 17.727 12.9372 17.3257C12.9372 16.9245 12.6172 16.5943 12.221 16.5943H11.84C10.9461 16.5943 10.1791 15.9188 10.0978 15.0502C10.0521 14.5575 10.2095 14.0699 10.5397 13.7092C10.8546 13.3638 11.3016 13.1607 11.7638 13.1607H15.5988C16.4622 13.1607 17.2038 13.7854 17.3257 14.6134C17.4527 15.4921 16.9194 16.3149 16.0915 16.5384C16.0711 16.5435 16.1524 16.5029 15.9899 16.5486C15.6546 16.6349 15.3194 16.8991 15.3194 17.2851C15.3194 17.4934 15.4007 17.6813 15.548 17.8235C15.6902 17.9607 15.8832 18.0318 16.0762 18.0216C16.1575 18.0216 16.0762 18.0318 16.1168 18.0216C17.7372 17.7829 18.9003 16.2845 18.7632 14.6083C18.6311 12.9778 17.2241 11.7029 15.5632 11.7029H11.8908C10.1588 11.7029 8.71113 13.0845 8.66034 14.781C8.63494 15.6648 8.95494 16.4927 9.55939 17.1175C10.1486 17.7219 10.9257 18.0521 11.7588 18.0521L11.7638 18.0572Z" fill="white"/>
</g>
<defs>
<clipPath id="clip0_889_70936">
<rect width="32" height="32" fill="white"/>
</clipPath>
</defs>
</svg>
