<svg width="32" height="32" viewBox="0 0 32 32" fill="none" xmlns="http://www.w3.org/2000/svg">
<path d="M16 4.06348C9.40697 4.06348 4.06348 9.40697 4.06348 16C4.06348 22.593 9.40697 27.9365 16 27.9365C22.593 27.9365 27.9365 22.593 27.9365 16C27.9365 9.40697 22.593 4.06348 16 4.06348ZM26.372 15.2381H21.826C21.7092 11.4489 20.7289 8.13713 19.2813 6.1257C23.1873 7.42602 26.0622 10.9816 26.372 15.2381ZM16 26.4127C14.0495 26.4127 11.8857 22.334 11.7028 16.7619H20.3022C20.1194 22.334 17.9505 26.4127 16.0051 26.4127H16ZM11.7028 15.2381C11.8857 9.66602 14.0546 5.58729 16 5.58729C17.9454 5.58729 20.1143 9.66602 20.2971 15.2381H11.7028ZM12.7187 6.1257C11.2711 8.13713 10.2908 11.4489 10.174 15.2381H5.62792C5.93776 10.9816 8.81268 7.42602 12.7187 6.1257ZM5.62792 16.7619H10.174C10.2908 20.5511 11.2711 23.8628 12.7187 25.8743C8.81268 24.574 5.93776 21.0184 5.62792 16.7619ZM19.2863 25.8743C20.734 23.8628 21.7143 20.5511 21.8311 16.7619H26.3771C26.0673 21.0184 23.1924 24.574 19.2863 25.8743Z" fill="white"/>
</svg>
